<?xml version="1.0" standalone="no"?>
<!DOCTYPE svg PUBLIC "-//W3C//DTD SVG 20010904//EN"
 "http://www.w3.org/TR/2001/REC-SVG-20010904/DTD/svg10.dtd">
<svg version="1.0" xmlns="http://www.w3.org/2000/svg"
 width="550.000000pt" height="550.000000pt" viewBox="0 0 550.000000 550.000000"
 preserveAspectRatio="xMidYMid meet">

<g transform="translate(0.000000,550.000000) scale(0.100000,-0.100000)"
fill="#000000" stroke="none">
<path d="M522 3735 c3 -23 13 -29 70 -49 62 -21 162 -80 188 -111 10 -12 -3
-182 -64 -850 -9 -88 -22 -243 -31 -345 -38 -451 -65 -519 -222 -566 -48 -14
-53 -18 -53 -45 l0 -29 316 0 315 0 -3 32 c-3 28 -8 32 -52 45 -165 48 -229
168 -206 388 11 100 46 486 75 815 24 272 33 372 37 375 2 2 38 -83 80 -188
42 -106 134 -331 203 -502 70 -170 183 -449 252 -620 69 -170 130 -318 135
-328 6 -12 18 -17 36 -15 29 3 14 -29 237 513 29 72 112 273 185 449 72 175
165 402 206 505 42 102 79 190 84 194 4 5 10 -38 14 -95 4 -57 13 -182 21
-278 8 -96 21 -258 29 -360 9 -102 23 -274 32 -383 29 -355 11 -417 -137 -468
-48 -16 -54 -21 -54 -46 l0 -28 363 -3 362 -2 0 30 c0 24 -5 31 -27 36 -129
28 -173 68 -201 184 -11 46 -39 329 -67 685 -8 110 -23 281 -32 380 -9 99 -17
250 -17 335 -1 142 1 159 22 201 28 58 86 100 147 107 42 4 45 7 45 33 l0 29
-239 0 -239 0 -10 -27 c-6 -16 -29 -73 -52 -128 -23 -55 -65 -158 -95 -230
-146 -359 -288 -705 -305 -745 -11 -25 -56 -135 -101 -245 -44 -110 -82 -201
-84 -203 -1 -2 -14 25 -28 60 -14 35 -57 140 -95 233 -38 94 -118 289 -177
435 -59 146 -141 348 -182 450 -42 102 -95 232 -118 290 l-43 105 -262 3 -261
2 3 -25z"/>
<path d="M3160 3731 c0 -30 2 -31 43 -31 54 -1 120 -31 143 -65 41 -62 44
-118 44 -870 0 -735 -4 -820 -39 -880 -22 -38 -82 -72 -143 -80 -45 -6 -48 -9
-48 -36 l0 -29 365 0 365 0 0 29 c0 27 -3 29 -62 41 -50 9 -70 19 -99 49 -60
59 -62 77 -66 469 l-4 352 93 0 c105 0 204 -20 257 -52 84 -49 208 -198 327
-390 95 -154 204 -318 272 -411 l66 -87 205 2 206 3 3 27 c3 24 -1 28 -50 42
-100 29 -189 123 -332 351 -184 293 -240 370 -342 473 -81 81 -99 104 -86 109
179 64 283 148 345 281 29 61 32 78 35 182 3 97 1 125 -17 178 -55 163 -182
276 -386 343 -69 23 -77 24 -582 27 l-513 3 0 -30z m895 -71 c87 -27 148 -65
213 -133 59 -63 75 -92 96 -174 44 -168 0 -350 -111 -461 -99 -99 -215 -132
-464 -132 l-129 0 0 467 0 466 163 -6 c124 -5 179 -11 232 -27z"/>
</g>
</svg>
